<?xml version="1.0" encoding="UTF-8"?>
<svg xmlns="http://www.w3.org/2000/svg" xmlns:xlink="http://www.w3.org/1999/xlink" width="7.59in" height="6.63in" viewBox="0 0 546.2 477.49">
  <defs>
    <clipPath id="a" transform="translate(-32.2 -157.39)">
      <rect x="31" y="157" width="548.81" height="479.03" fill="none"></rect>
    </clipPath>
  </defs>
  <path d="M32.2,432.32v93.39H51V461.54l38.06,64.17H109V432.28H90.18v64.17L52.12,432.28l-19.92,0Zm123,0-34.27,93.43h20.47l6.19-19.1h36.13l6.19,19.1h20.2l-33.53-93.43Zm10.25,18.82,12.91,39.71H152.63l12.78-39.71ZM296,493.29H277.46c-2.06,10.3-8.93,16.9-20.88,16.9-17.46,0-25-12.92-25-31.19,0-18.83,7.83-31.33,25.55-31.33,9.07,0,15.26,3.43,18.42,10.16,1.78,3.71,1.68,5.61,1.68,5.61l18.79,0c-1-10.17-4.67-18.28-11.27-24.19-7-5.77-16.21-8.52-27.62-8.52-29.54,0-44.65,18.14-44.65,48.24,0,29.12,14.29,48.09,43,48.09,23.63,0,38.75-12.23,40.53-33.8Zm13.33-1.1c0,23.63,13.19,34.9,37.1,34.9,23.5,0,37-12,37-34.9V432.28h-19V490c0,13.74-6.05,20.75-18,20.61s-18-7-18-20.61V432.28l-19.14,0,0,59.95Zm167.51,5.08c0-12.37-5.36-18.41-14.57-22,7.29-3.58,11.27-9.49,11.27-19.38,0-16.63-11.68-23.63-29.27-23.63l-43.87.25-.1,93.18h42.46c20.2,0,34.08-9.06,34.08-28.44Zm-22.53-38.89c0,7.84-6.19,10.17-13.75,10.17H419.14V448.49H440.3c8.66,0,14,2.06,14,9.89Zm2.33,38.34c0,9.34-5.77,12.09-15.25,12.09H419.14V484.35h22c9.9,0,15.53,2.75,15.53,12.37Zm77-49.33c17.45,0,25.69,13.19,25.69,31.61,0,18.82-8.24,32-25.69,32S508,497.27,508,479s8.11-31.61,25.56-31.61Zm0,79.7c28.44,0,44.79-19.38,44.79-48.09,0-28.31-16.9-48.24-44.79-48.24S488.94,450.41,488.94,479s16.21,48.09,44.66,48.09Z" transform="translate(-32.2 -157.39)" fill="#fff"></path>
  <g clip-path="url(#a)">
    <path d="M191.38,292.65,310.3,173.74l75.2,75.2M224.71,326l53.79-53.79m-20.09,87.49,94.26-94.26m-60.56,128,127.1-127.09" transform="translate(-32.2 -157.39)" fill="none" stroke="#fff" stroke-width="23.12"></path>
  </g>
  <path d="M305.3,367.05" transform="translate(-32.2 -157.39)" fill="#fff"></path>
  <path d="M305.3,367.05" transform="translate(-32.2 -157.39)" fill="none" stroke="#ec008c" stroke-width="2.04"></path>
  <path d="M123.6,603.41h5.24c4.68,0,7,1.64,7,6.09,0,3.89-2.34,6.09-7.49,6.09H123.6V603.41Zm0,14.71h5.57c5.2,0,7.72,2.34,7.72,6.83s-2.52,6.84-7.72,6.84H123.6V618.12Zm-3,16.2h9.18c6.32,0,10.11-3.51,10.11-9.37,0-4.35-2.11-7.54-6.23-8.33v-.1c3.37-.84,5.15-4,5.15-7.25,0-5-2.52-8.38-9-8.38H120.6v33.43Zm24.21-6.09c0,4.68,2.57,6.65,6.37,6.65a7,7,0,0,0,6.36-4h.1v3.47h2.53V609.45h-2.81v16.72c0,3.84-2.25,6.37-5.44,6.37-2.95,0-4.3-1.55-4.3-5.57V609.45h-2.81v18.78Zm29.36-4.73c2.48,1,3.37,2.39,3.37,4.59,0,2.76-1.92,4.45-4.92,4.45-3.18,0-4.78-1.87-4.78-5.53v-.65H165v.79c0,5.62,2.52,7.73,7.63,7.73s7.68-3.14,7.68-7.4c0-2.71-1.27-5.06-4.64-6.32l-4.07-1.55c-2.81-1.07-3.37-2.43-3.37-4.16,0-2.48,1.26-4.22,4.54-4.22,2.57,0,4.07,1.36,4.07,4.59v.7h2.81v-.7c0-4.54-2.15-6.93-6.84-6.93-4.21,0-7.39,2.06-7.39,7.17,0,2.48,1.26,4.54,4.77,5.9l3.94,1.54Zm11.23,10.82h2.81V609.45H185.4v24.87Zm0-28.66h2.81v-4.77H185.4v4.77Zm9.13,28.66h2.81V617.6c0-3.84,2.2-6.37,5.48-6.37,2.86,0,4.26,1.69,4.26,5.11v18h2.81V615.54c0-4.68-2.57-6.65-6.37-6.65a7,7,0,0,0-6.36,4h-.1v-3.47h-2.53v24.87Zm34-8.24c-.47,4.35-2.3,6.46-5.25,6.46-2.76,0-5.29-2.2-5.29-9.37V622h13.58v-1c0-8.29-2.48-12.08-8-12.08s-8.56,4.36-8.56,13c0,9.37,3.09,13,8.33,13,4.68,0,7.59-3.51,8-8.8ZM218,619.66c.1-6.18,1.83-8.43,5.29-8.43s5.2,2.25,5.29,8.43Zm26.55,3.84c2.48,1,3.37,2.39,3.37,4.59,0,2.76-1.92,4.45-4.91,4.45-3.19,0-4.78-1.87-4.78-5.53v-.65h-2.81v.79c0,5.62,2.53,7.73,7.63,7.73,5.25,0,7.68-3.14,7.68-7.4,0-2.71-1.26-5.06-4.63-6.32L242,619.61c-2.81-1.07-3.37-2.43-3.37-4.16,0-2.48,1.27-4.22,4.54-4.22,2.58,0,4.08,1.36,4.08,4.59v.7h2.81v-.7c0-4.54-2.16-6.93-6.84-6.93-4.21,0-7.4,2.06-7.4,7.17,0,2.48,1.27,4.54,4.78,5.9l3.93,1.54Zm18.92,0c2.48,1,3.37,2.39,3.37,4.59,0,2.76-1.92,4.45-4.92,4.45-3.18,0-4.77-1.87-4.77-5.53v-.65h-2.81v.79c0,5.62,2.53,7.73,7.63,7.73s7.68-3.14,7.68-7.4c0-2.71-1.27-5.06-4.64-6.32l-4.07-1.55c-2.81-1.07-3.37-2.43-3.37-4.16,0-2.48,1.26-4.22,4.54-4.22,2.58,0,4.07,1.36,4.07,4.59v.7H269v-.7c0-4.54-2.15-6.93-6.83-6.93-4.22,0-7.4,2.06-7.4,7.17,0,2.48,1.26,4.54,4.77,5.9l3.94,1.54Zm25.28-6.65c0-3.6,1.45-5.62,4.78-5.62,2.53,0,4.31,1.13,4.31,4.31,0,2.9-.42,3.37-2.39,3.93l-5.29,1.5c-3.51,1-5,3.61-5,6.89,0,4.3,2,7,6.32,7,2.76,0,5.29-.94,6.41-4.21h.1v.84c0,2.57,1.4,3.09,3.6,3.09a3.77,3.77,0,0,0,1.31-.28v-2.06h-.79c-1,0-1.45-.66-1.45-2.06V615.49c0-3.93-1.88-6.6-7-6.6s-7.68,2.86-7.68,8Zm9.09,8.66c0,4.45-2.34,7-5.76,7-2.44,0-3.94-2-3.94-4.87s1.46-4.4,4.26-5.15l2.35-.61c1.12-.28,2.71-.8,3-1.64h.1v5.24Zm9.27,8.81h2.81V617.6c0-3.84,2.2-6.37,5.48-6.37,2.85,0,4.26,1.69,4.26,5.11v18h2.81V615.54c0-4.68-2.58-6.65-6.37-6.65a7,7,0,0,0-6.37,4h-.09v-3.47H307.1v24.87Zm34.6,0h2.53V600.89h-2.81V613.2h-.09a5.53,5.53,0,0,0-5.81-4.31c-5.48,0-8,4.4-8,13s2.48,13,8,13a6.14,6.14,0,0,0,6.09-4.68h.09v4.12Zm-11.14-12.46c0-9.18,2.62-10.63,5.43-10.63s5.43,1.45,5.43,10.63-2.57,10.68-5.43,10.68-5.43-1.45-5.43-10.68Zm31.37,12.46h3v-16.2h12.69v-2.53H364.92V603.41H378.5v-2.52H361.93v33.43Zm20.93,0h2.81V609.45h-2.81v24.87Zm0-28.66h2.81v-4.77h-2.81v4.77ZM392,634.32h2.81V617.6c0-3.84,2.2-6.37,5.48-6.37,2.85,0,4.26,1.69,4.26,5.11v18h2.81V615.54c0-4.68-2.58-6.65-6.37-6.65a7,7,0,0,0-6.37,4h-.09v-3.47H392v24.87Zm23.78-17.47c0-3.6,1.46-5.62,4.78-5.62,2.53,0,4.31,1.13,4.31,4.31,0,2.9-.42,3.37-2.39,3.93l-5.29,1.5c-3.51,1-5,3.61-5,6.89,0,4.3,2,7,6.32,7,2.76,0,5.29-.94,6.42-4.21H425v.84c0,2.57,1.4,3.09,3.61,3.09a3.86,3.86,0,0,0,1.31-.28v-2.06h-.8c-1,0-1.45-.66-1.45-2.06V615.49c0-3.93-1.88-6.6-7-6.6s-7.68,2.86-7.68,8Zm9.09,8.66c0,4.45-2.34,7-5.76,7-2.43,0-3.93-2-3.93-4.87s1.45-4.4,4.26-5.15l2.34-.61c1.12-.28,2.71-.8,3-1.64h.09v5.24Zm9.27,8.81h2.81V617.6c0-3.84,2.2-6.37,5.48-6.37,2.85,0,4.26,1.69,4.26,5.11v18h2.81V615.54c0-4.68-2.58-6.65-6.37-6.65a7,7,0,0,0-6.37,4h-.09v-3.47h-2.53v24.87Zm33.62-8.24c-.47,4.35-2.3,6.46-5.15,6.46-2.62,0-5.29-1.27-5.29-10.63,0-8.8,2.53-10.68,5.57-10.68s4.54,1.74,4.87,5.62h2.81c-.28-5.1-3-8-7.68-8-5.48,0-8.57,4.36-8.57,13,0,9.37,3.09,13,8.33,13,4.59,0,7.5-3.51,7.92-8.8Zm20.13,0c-.47,4.35-2.29,6.46-5.24,6.46-2.76,0-5.29-2.2-5.29-9.37V622h13.58v-1c0-8.29-2.48-12.08-8-12.08s-8.57,4.36-8.57,13c0,9.37,3.09,13,8.34,13,4.68,0,7.58-3.51,8-8.8Zm-10.53-6.42c.09-6.18,1.82-8.43,5.29-8.43s5.2,2.25,5.29,8.43Z" transform="translate(-32.2 -157.39)" fill="#fff"></path>
  <path d="M57.46,584.4h3V553.5h8.62V551H48.84v2.53h8.62v30.9Zm15.31,0h2.81V567.68c0-3.83,2.2-6.36,5.48-6.36,2.85,0,4.26,1.68,4.26,5.1v18h2.81V565.63c0-4.69-2.58-6.65-6.37-6.65-3,0-5.39,1.49-6.09,4h-.09V551H72.77V584.4Zm34-8.24c-.47,4.36-2.29,6.46-5.24,6.46-2.76,0-5.29-2.2-5.29-9.36v-1.17h13.58v-1c0-8.29-2.49-12.08-8-12.08s-8.57,4.35-8.57,13c0,9.36,3.09,13,8.34,13,4.68,0,7.58-3.51,8-8.8Zm-10.53-6.41c.09-6.19,1.82-8.43,5.29-8.43s5.2,2.24,5.29,8.43Zm35.11,14.65h3.75l8.8-33.43h-3.18l-7.45,30.25h-.09L125.73,551h-3.19l8.8,33.43Zm14-12.45c0,8.66,3.09,13,8.57,13s8.57-4.35,8.57-13-3.09-13-8.57-13-8.57,4.35-8.57,13Zm3,0c0-7.92,2.43-10.63,5.57-10.63s5.57,2.71,5.57,10.63-2.44,10.67-5.57,10.67-5.57-2.71-5.57-10.67Zm19.15,12.45h2.81V559.54h-2.81V584.4Zm0-28.66h2.81V551h-2.81v4.77Zm21.25,20.42c-.46,4.36-2.29,6.46-5.15,6.46-2.62,0-5.29-1.26-5.29-10.63,0-8.8,2.53-10.67,5.57-10.67s4.55,1.73,4.87,5.62h2.81c-.28-5.11-3-8-7.68-8-5.47,0-8.56,4.35-8.56,13,0,9.36,3.09,13,8.33,13,4.59,0,7.49-3.51,7.91-8.8Zm20.14,0c-.47,4.36-2.3,6.46-5.25,6.46-2.76,0-5.29-2.2-5.29-9.36v-1.17h13.58v-1c0-8.29-2.48-12.08-8-12.08s-8.57,4.35-8.57,13c0,9.36,3.09,13,8.33,13,4.68,0,7.59-3.51,8-8.8Zm-10.54-6.41c.1-6.19,1.83-8.43,5.29-8.43s5.2,2.24,5.3,8.43Zm29.31,2.2c0,8.66,3.1,13,8.57,13s8.57-4.35,8.57-13-3.09-13-8.57-13-8.57,4.35-8.57,13Zm3,0c0-7.92,2.44-10.63,5.57-10.63s5.58,2.71,5.58,10.63-2.44,10.67-5.58,10.67-5.57-2.71-5.57-10.67Zm20,12.45h2.8V561.88h4.41v-2.34h-4.41v-2.95c0-2.86,1-3.65,3-3.65a5.74,5.74,0,0,1,1.36.14v-2.35a9.12,9.12,0,0,0-1.78-.14c-4.73,0-5.43,2.58-5.43,6v2.95h-3.42v2.34h3.42V584.4Zm38.86,0h3V551h-3V565.2H276.41V551h-3V584.4h3V567.73h13.06V584.4Zm9.22,0h2.81V559.54h-2.81V584.4Zm0-28.66h2.81V551h-2.81v4.77Zm22,7.64h-.09a5.92,5.92,0,0,0-5.81-4.4c-5.47,0-8,4.4-8,13,0,9.92,3.84,12.45,7.68,12.45a5.81,5.81,0,0,0,5.81-4.45h.09v3.94c0,4.4-1.82,6.79-5.24,6.79-2.48,0-4.68-1.41-4.68-3.75h-2.81c0,3.56,2.57,6.09,7.4,6.09,5.61,0,8.14-3.51,8.14-10.4V559.54h-2.53v3.84Zm-10.86,8.29c0-7.92,2-10.35,5.29-10.35s5.29,2.43,5.29,10.35-2,10.39-5.29,10.39-5.29-2.44-5.29-10.39Zm19.53,12.73h2.81V567.68c0-3.83,2.2-6.36,5.47-6.36,2.86,0,4.26,1.68,4.26,5.1v18h2.81V565.63c0-4.69-2.57-6.65-6.36-6.65-2.95,0-5.39,1.49-6.09,4h-.09V551h-2.81V584.4Zm34-8.24c-.47,4.36-2.29,6.46-5.24,6.46-2.77,0-5.3-2.2-5.3-9.36v-1.17h13.58v-1c0-8.29-2.48-12.08-8-12.08s-8.57,4.35-8.57,13c0,9.36,3.09,13,8.33,13,4.68,0,7.59-3.51,8-8.8Zm-10.54-6.41c.1-6.19,1.83-8.43,5.3-8.43s5.19,2.24,5.29,8.43Zm18.69,14.65h2.81V568.86c0-4.83,2.9-7.07,6-7.07a7.34,7.34,0,0,1,1.36.13v-2.8a3.36,3.36,0,0,0-1-.14,6.58,6.58,0,0,0-6.28,4.44h-.09v-3.88h-2.81V584.4Zm25.56,0h17v-2.53H400V568.2h12.69v-2.53H400V553.5H413.6V551H397V584.4Zm34.7,0h2.53V551h-2.81v12.31h-.09c-.61-2.62-2.72-4.3-5.81-4.3-5.48,0-8,4.4-8,13s2.48,13,8,13a6.13,6.13,0,0,0,6.09-4.68h.09v4.12ZM420.58,572c0-9.18,2.62-10.63,5.43-10.63s5.43,1.45,5.43,10.63-2.58,10.67-5.43,10.67-5.43-1.45-5.43-10.67Zm19.52,6.36c0,4.69,2.58,6.65,6.37,6.65a7,7,0,0,0,6.37-4h.09v3.46h2.53V559.54h-2.81v16.71c0,3.84-2.25,6.37-5.43,6.37-3,0-4.31-1.54-4.31-5.57V559.54H440.1v18.77Zm33.62-2.15c-.47,4.36-2.3,6.46-5.15,6.46-2.62,0-5.29-1.26-5.29-10.63,0-8.8,2.53-10.67,5.57-10.67s4.54,1.73,4.87,5.62h2.81c-.28-5.11-3-8-7.68-8-5.48,0-8.57,4.35-8.57,13,0,9.36,3.09,13,8.34,13,4.58,0,7.49-3.51,7.91-8.8Zm9.93-9.22c0-3.61,1.45-5.62,4.77-5.62,2.53,0,4.31,1.12,4.31,4.31,0,2.9-.42,3.37-2.39,3.93l-5.29,1.5c-3.51,1-5,3.6-5,6.88,0,4.31,2,7,6.32,7,2.76,0,5.29-.93,6.42-4.21h.09v.84c0,2.58,1.41,3.09,3.61,3.09a3.86,3.86,0,0,0,1.31-.28v-2.06H497c-1,0-1.45-.66-1.45-2.06v-14.7c0-3.93-1.87-6.6-7-6.6s-7.68,2.85-7.68,8Zm9.08,8.66c0,4.45-2.34,7-5.76,7-2.43,0-3.93-2-3.93-4.87s1.45-4.4,4.26-5.15l2.34-.61c1.12-.28,2.72-.79,3-1.64h.09v5.25Zm10.3,4.73c0,3.32,1.45,4.35,5.25,4.35a4.62,4.62,0,0,0,2-.28v-2.34a5.73,5.73,0,0,1-1.73.28c-1.83,0-2.67-.66-2.67-2.62V561.88h4.4v-2.34h-4.4v-6.89H503v6.89h-3.42v2.34H503v18.45Zm11.15,4.07H517V559.54h-2.8V584.4Zm0-28.66H517V551h-2.8v4.77ZM522,572c0,8.66,3.1,13,8.57,13s8.57-4.35,8.57-13-3.09-13-8.57-13S522,563.33,522,572Zm3,0c0-7.92,2.44-10.63,5.57-10.63s5.58,2.71,5.58,10.63-2.44,10.67-5.58,10.67S525,579.91,525,572Zm19,12.45h2.81V567.68c0-3.83,2.2-6.36,5.47-6.36,2.86,0,4.27,1.68,4.27,5.1v18h2.8V565.63c0-4.69-2.57-6.65-6.36-6.65a7,7,0,0,0-6.37,4h-.1v-3.46H544V584.4Z" transform="translate(-32.2 -157.39)" fill="#fff"></path>
</svg>
